<svg width="408" height="230" viewBox="0 0 408 230"  xmlns="http://www.w3.org/2000/svg">
<rect width="408" height="230" fill="#DB8A71"/>
<rect x="133" y="65" width="142" height="96" rx="9" stroke="white" stroke-width="2" stroke-linejoin="round"/>
<line x1="168" y1="74" x2="266" y2="74" stroke="white" stroke-width="2" stroke-linecap="round"/>
<line x1="145" y1="97" x2="188" y2="97" stroke="white" stroke-width="2" stroke-linecap="round"/>
<line x1="195" y1="97" x2="238" y2="97" stroke="white" stroke-width="2" stroke-linecap="round"/>
<line x1="145" y1="130" x2="188" y2="130" stroke="white" stroke-width="2" stroke-linecap="round"/>
<line x1="154" y1="104" x2="229" y2="104" stroke="white" stroke-width="2" stroke-linecap="round"/>
<line x1="163" y1="112" x2="182" y2="112" stroke="white" stroke-width="2" stroke-linecap="round"/>
<line x1="208" y1="121" x2="227" y2="121" stroke="white" stroke-width="2" stroke-linecap="round"/>
<line x1="194" y1="130" x2="213" y2="130" stroke="white" stroke-width="2" stroke-linecap="round"/>
<line x1="190" y1="112" x2="245" y2="112" stroke="white" stroke-width="2" stroke-linecap="round"/>
<line x1="157" y1="121" x2="203" y2="121" stroke="white" stroke-width="2" stroke-linecap="round"/>
<line x1="140" y1="74" x2="143" y2="74" stroke="white" stroke-width="2" stroke-linecap="round"/>
<line x1="147" y1="74" x2="150" y2="74" stroke="white" stroke-width="2" stroke-linecap="round"/>
<line x1="154" y1="74" x2="157" y2="74" stroke="white" stroke-width="2" stroke-linecap="round"/>
</svg>
