<svg width="408" height="230" viewBox="0 0 408 230" fill="none" xmlns="http://www.w3.org/2000/svg">
<rect width="408" height="230" rx="10" fill="#6AA276"/>
<g clip-path="url(#clip0_827_935)">
<rect x="187.081" y="98.2373" width="32.5253" height="32.5253" rx="4" stroke="white" stroke-width="2"/>
<path d="M203.344 53.2385L204.064 52.5452C203.876 52.3492 203.616 52.2385 203.344 52.2385C203.072 52.2385 202.812 52.3492 202.623 52.5452L203.344 53.2385ZM217.359 67.8039L217.359 68.8039C217.76 68.8039 218.122 68.5644 218.279 68.1954C218.436 67.8265 218.358 67.3994 218.08 67.1105L217.359 67.8039ZM189.328 67.8039L188.608 67.1105C188.33 67.3994 188.251 67.8265 188.408 68.1954C188.565 68.5644 188.927 68.8039 189.328 68.8039L189.328 67.8039ZM197.949 67.8039H198.949C198.949 67.2516 198.501 66.8039 197.949 66.8039V67.8039ZM197.949 89.9217H196.949C196.949 90.474 197.397 90.9217 197.949 90.9217V89.9217ZM208.738 89.9217V90.9217C209.291 90.9217 209.738 90.474 209.738 89.9217H208.738ZM208.738 67.8039V66.8039C208.186 66.8039 207.738 67.2516 207.738 67.8039H208.738ZM202.623 53.9319L216.639 68.4973L218.08 67.1105L204.064 52.5452L202.623 53.9319ZM190.049 68.4973L204.064 53.9319L202.623 52.5452L188.608 67.1105L190.049 68.4973ZM197.949 66.8039L189.328 66.8039L189.328 68.8039L197.949 68.8039V66.8039ZM198.949 89.9217L198.949 67.8039H196.949L196.949 89.9217H198.949ZM208.738 88.9217H197.949V90.9217H208.738V88.9217ZM207.738 67.8039L207.738 89.9217H209.738V67.8039H207.738ZM217.359 66.8039L208.738 66.8039V68.8039L217.359 68.8039L217.359 66.8039Z" fill="white"/>
<path d="M203.344 175.761L202.623 176.455C202.812 176.651 203.072 176.761 203.344 176.761C203.616 176.761 203.876 176.651 204.064 176.455L203.344 175.761ZM189.328 161.196L189.328 160.196C188.927 160.196 188.565 160.436 188.408 160.805C188.251 161.174 188.33 161.601 188.608 161.889L189.328 161.196ZM217.359 161.196L218.08 161.889C218.358 161.601 218.436 161.173 218.279 160.805C218.122 160.436 217.76 160.196 217.359 160.196L217.359 161.196ZM208.738 161.196L207.738 161.196C207.738 161.461 207.844 161.716 208.031 161.903C208.219 162.091 208.473 162.196 208.738 162.196L208.738 161.196ZM208.738 139.078L209.738 139.078C209.738 138.526 209.291 138.078 208.738 138.078L208.738 139.078ZM197.949 139.078L197.949 138.078C197.684 138.078 197.43 138.184 197.242 138.371C197.055 138.559 196.949 138.813 196.949 139.078L197.949 139.078ZM197.949 161.196L197.949 162.196C198.501 162.196 198.949 161.748 198.949 161.196L197.949 161.196ZM204.064 175.068L190.049 160.503L188.608 161.889L202.623 176.455L204.064 175.068ZM216.639 160.503L202.623 175.068L204.064 176.455L218.08 161.889L216.639 160.503ZM208.738 162.196L217.359 162.196L217.359 160.196L208.738 160.196L208.738 162.196ZM207.738 139.078L207.738 161.196L209.738 161.196L209.738 139.078L207.738 139.078ZM197.949 140.078L208.738 140.078L208.738 138.078L197.949 138.078L197.949 140.078ZM198.949 161.196L198.949 139.078L196.949 139.078L196.949 161.196L198.949 161.196ZM189.328 162.196L197.949 162.196L197.949 160.196L189.328 160.196L189.328 162.196Z" fill="white"/>
<path d="M264.605 115.04L265.299 115.76C265.495 115.572 265.605 115.311 265.605 115.04C265.605 114.768 265.495 114.507 265.299 114.319L264.605 115.04ZM250.04 129.055L249.04 129.055C249.04 129.456 249.28 129.818 249.649 129.975C250.017 130.132 250.445 130.054 250.733 129.776L250.04 129.055ZM250.04 101.024L250.733 100.303C250.445 100.025 250.017 99.9469 249.649 100.104C249.28 100.261 249.04 100.623 249.04 101.024L250.04 101.024ZM250.04 109.645V110.645C250.592 110.645 251.04 110.197 251.04 109.645H250.04ZM227.922 109.645V108.645C227.37 108.645 226.922 109.093 226.922 109.645H227.922ZM227.922 120.434H226.922C226.922 120.699 227.028 120.954 227.215 121.141C227.403 121.329 227.657 121.434 227.922 121.434V120.434ZM250.04 120.434H251.04C251.04 119.882 250.592 119.434 250.04 119.434V120.434ZM263.912 114.319L249.347 128.335L250.733 129.776L265.299 115.76L263.912 114.319ZM249.347 101.745L263.912 115.76L265.299 114.319L250.733 100.303L249.347 101.745ZM251.04 109.645L251.04 101.024L249.04 101.024L249.04 109.645H251.04ZM227.922 110.645L250.04 110.645V108.645L227.922 108.645V110.645ZM228.922 120.434L228.922 109.645H226.922L226.922 120.434H228.922ZM250.04 119.434L227.922 119.434V121.434L250.04 121.434V119.434ZM251.04 129.055L251.04 120.434H249.04L249.04 129.055L251.04 129.055Z" fill="white"/>
<path d="M142.083 115.04L141.389 114.319C141.193 114.507 141.083 114.768 141.083 115.04C141.083 115.311 141.193 115.572 141.389 115.76L142.083 115.04ZM156.648 101.024L157.648 101.024C157.648 100.623 157.408 100.261 157.039 100.104C156.67 99.9469 156.243 100.025 155.955 100.303L156.648 101.024ZM156.648 129.055L155.955 129.776C156.243 130.054 156.67 130.132 157.039 129.975C157.408 129.818 157.648 129.456 157.648 129.055L156.648 129.055ZM156.648 120.434L156.648 119.434C156.096 119.434 155.648 119.882 155.648 120.434L156.648 120.434ZM178.766 120.434L178.766 121.434C179.031 121.434 179.285 121.329 179.473 121.141C179.66 120.954 179.766 120.699 179.766 120.434L178.766 120.434ZM178.766 109.645L179.766 109.645C179.766 109.38 179.66 109.125 179.473 108.938C179.285 108.75 179.031 108.645 178.766 108.645L178.766 109.645ZM156.648 109.645L155.648 109.645C155.648 109.91 155.753 110.165 155.941 110.352C156.128 110.54 156.383 110.645 156.648 110.645L156.648 109.645ZM142.776 115.76L157.341 101.745L155.955 100.303L141.389 114.319L142.776 115.76ZM157.341 128.335L142.776 114.319L141.389 115.76L155.955 129.776L157.341 128.335ZM155.648 120.434L155.648 129.055L157.648 129.055L157.648 120.434L155.648 120.434ZM178.766 119.434L156.648 119.434L156.648 121.434L178.766 121.434L178.766 119.434ZM177.766 109.645L177.766 120.434L179.766 120.434L179.766 109.645L177.766 109.645ZM156.648 110.645L178.766 110.645L178.766 108.645L156.648 108.645L156.648 110.645ZM155.648 101.024L155.648 109.645L157.648 109.645L157.648 101.024L155.648 101.024Z" fill="white"/>
</g>
<defs>
<clipPath id="clip0_827_935">
<rect width="89.8026" height="89.8026" fill="white" transform="translate(203.5 51) rotate(45)"/>
</clipPath>
</defs>
</svg>
