<svg width="408" height="230" viewBox="0 0 408 230"  xmlns="http://www.w3.org/2000/svg">
<rect width="408" height="230" rx="10" fill="#579BC0"/>
<path d="M203.515 55.4776C203.368 55.5216 203.228 55.5804 203.104 55.6538L120.384 97.0138C119.752 97.337 119.355 97.9832 119.355 98.6882C119.355 99.3932 119.752 100.047 120.384 100.363L203.104 141.723C203.618 141.98 204.227 141.98 204.749 141.723L287.469 100.363C288.093 100.047 288.489 99.3932 288.489 98.6882C288.489 97.9832 288.093 97.3369 287.469 97.0138L204.749 55.6538C204.367 55.4555 203.933 55.3968 203.515 55.4776ZM203.926 59.4139L282.474 98.7172L203.926 137.962L125.378 98.7247L203.926 59.4214V59.4139ZM286.704 114.041C286.389 114.063 286.087 114.165 285.823 114.334L203.927 155.283L122.03 114.334C121.758 114.188 121.457 114.107 121.149 114.099C120.275 114.114 119.518 114.731 119.342 115.59C119.159 116.449 119.592 117.316 120.385 117.683L203.105 159.043C203.619 159.3 204.229 159.3 204.75 159.043L287.47 117.683C288.344 117.367 288.858 116.449 288.667 115.532C288.469 114.621 287.639 113.982 286.706 114.041L286.704 114.041ZM286.704 131.361C286.389 131.383 286.087 131.485 285.823 131.654L203.927 172.603L122.03 131.654C121.758 131.508 121.457 131.427 121.149 131.419C120.275 131.434 119.526 132.051 119.342 132.91C119.159 133.769 119.592 134.636 120.385 135.003L203.105 176.363C203.619 176.62 204.229 176.62 204.75 176.363L287.47 135.003C288.344 134.687 288.858 133.769 288.667 132.852C288.469 131.941 287.639 131.302 286.706 131.361L286.704 131.361Z" className="fill-white"/>
</svg>
