<svg width="408" height="230" viewBox="0 0 408 230" fill="none" xmlns="http://www.w3.org/2000/svg">
<rect width="408" height="230" fill="#A4D9BF"/>
<path d="M129.949 65.8403C129.921 64.2003 130.189 62.8811 130.753 61.8826C131.316 60.8842 132.047 60.1572 132.946 59.7017C133.854 59.2462 134.811 59.0179 135.818 59.0167C136.824 59.0156 137.741 59.2368 138.57 59.6805C139.408 60.1142 140.364 60.7997 141.438 61.737C142.168 62.3685 142.749 62.8124 143.183 63.0688C143.627 63.3251 144.11 63.453 144.633 63.4524C145.482 63.4514 146.153 63.1444 146.647 62.5313C147.141 61.9084 147.379 61.009 147.36 59.8334L150.557 59.8298C150.585 61.4697 150.317 62.7889 149.753 63.7874C149.2 64.7859 148.469 65.5128 147.561 65.9683C146.652 66.4238 145.695 66.6522 144.689 66.6533C143.682 66.6545 142.765 66.4382 141.937 66.0044C141.108 65.5608 140.152 64.8703 139.068 63.933C138.348 63.3015 137.767 62.8576 137.323 62.6013C136.879 62.3449 136.396 62.217 135.873 62.2176C135.074 62.2185 134.413 62.5009 133.889 63.0646C133.375 63.6184 133.128 64.5424 133.146 65.8366L129.949 65.8403Z" fill="white"/>
<path fill-rule="evenodd" clip-rule="evenodd" d="M267.171 66.8691L170.795 66.9793L170.798 64.3711L267.174 64.2609L267.171 66.8691Z" fill="white"/>
<path fill-rule="evenodd" clip-rule="evenodd" d="M267.072 152.939L129.021 153.097L129.024 150.489L267.075 150.331L267.072 152.939Z" fill="white"/>
<path fill-rule="evenodd" clip-rule="evenodd" d="M267.111 119.033L170.735 119.143L170.738 116.535L267.114 116.424L267.111 119.033Z" fill="white"/>
<path fill-rule="evenodd" clip-rule="evenodd" d="M228.079 85.171L129.098 85.2842L129.101 82.676L228.082 82.5628L228.079 85.171Z" fill="white"/>
<path fill-rule="evenodd" clip-rule="evenodd" d="M267.15 85.1261L233.288 85.1648L233.291 82.5566L267.153 82.5179L267.15 85.1261Z" fill="white"/>
<path fill-rule="evenodd" clip-rule="evenodd" d="M228.019 137.335L129.039 137.448L129.042 134.84L228.022 134.727L228.019 137.335Z" fill="white"/>
<path fill-rule="evenodd" clip-rule="evenodd" d="M191.594 100.862L129.08 100.933L129.083 98.3252L191.597 98.2537L191.594 100.862Z" fill="white"/>
<path fill-rule="evenodd" clip-rule="evenodd" d="M191.514 171.283L129 171.355L129.003 168.746L191.517 168.675L191.514 171.283Z" fill="white"/>
<path fill-rule="evenodd" clip-rule="evenodd" d="M165.526 119.149L129.059 119.191L129.062 116.583L165.529 116.541L165.526 119.149Z" fill="white"/>
<path fill-rule="evenodd" clip-rule="evenodd" d="M267.09 137.29L233.228 137.329L233.231 134.72L267.093 134.682L267.09 137.29Z" fill="white"/>
<path fill-rule="evenodd" clip-rule="evenodd" d="M267.132 100.775L199.408 100.853L199.411 98.2446L267.135 98.1672L267.132 100.775Z" fill="white"/>
<path fill-rule="evenodd" clip-rule="evenodd" d="M267.052 171.196L199.328 171.274L199.331 168.666L267.054 168.588L267.052 171.196Z" fill="white"/>
</svg>
