<svg width="408" height="230" viewBox="0 0 408 230" fill="none" xmlns="http://www.w3.org/2000/svg">
<rect width="408" height="230" rx="10" fill="#988EA4"/>
<path d="M220 56C212.281 56 206 62.2812 206 70V122C206 128.617 200.617 134 194 134C187.383 134 182 128.617 182 122V70C182 62.2812 175.719 56 168 56C160.281 56 154 62.2812 154 70V135C154 135.551 154.445 136 155 136C155.555 136 156 135.551 156 135V70C156 63.3828 161.383 58 168 58C174.617 58 180 63.3828 180 70V122C180 129.719 186.281 136 194 136C201.719 136 208 129.719 208 122V70C208 63.3828 213.383 58 220 58C226.617 58 232 63.3828 232 70V135C232 135.551 232.445 136 233 136C233.555 136 234 135.551 234 135V70C234 62.2812 227.719 56 220 56Z" fill="white"/>
<path d="M233 81C225.281 81 219 87.2812 219 95V147C219 153.617 213.617 159 207 159C200.383 159 195 153.617 195 147V95C195 87.2812 188.719 81 181 81C173.281 81 167 87.2812 167 95V160C167 160.551 167.445 161 168 161C168.555 161 169 160.551 169 160V95C169 88.3828 174.383 83 181 83C187.617 83 193 88.3828 193 95V147C193 154.719 199.281 161 207 161C214.719 161 221 154.719 221 147V95C221 88.3828 226.383 83 233 83C239.617 83 245 88.3828 245 95V160C245 160.551 245.445 161 246 161C246.555 161 247 160.551 247 160V95C247 87.2812 240.719 81 233 81Z" fill="white"/>
</svg>
