<svg width="408" height="230" viewBox="0 0 408 230"  xmlns="http://www.w3.org/2000/svg">
<rect width="408" height="230" fill="#646262"/>
<path d="M141.84 66.1599C140.851 66.1888 140.366 67.0155 140.36 67.6399V153.48C140.36 154.255 141.065 154.96 141.84 154.96H189.154C192.756 154.96 196.039 155.446 198.358 156.625C200.676 157.804 202.087 159.487 202.52 162.545C202.538 163.314 203.231 163.84 204 163.84C204.769 163.84 205.469 163.314 205.48 162.545C205.914 159.487 207.325 157.804 209.643 156.625C211.961 155.446 215.245 154.96 218.847 154.96H266.161C266.935 154.96 267.641 154.255 267.641 153.48V67.6399C267.641 66.8652 266.935 66.1599 266.161 66.1599H218.847C214.534 66.1599 210.545 67.1832 207.515 69.3974C206.053 70.4669 204.862 71.8486 204 73.4674C203.139 71.8486 201.948 70.467 200.485 69.3974C197.462 67.1832 193.467 66.1599 189.154 66.1599H141.84ZM143.32 69.1199H189.154C192.993 69.1199 196.415 70.0276 198.774 71.7561C201.133 73.4846 202.52 75.9474 202.52 79.4799V156.348C201.722 155.4 200.815 154.556 199.699 153.989C196.704 152.469 193.01 152.001 189.154 152.001H143.32V69.1199ZM218.846 69.1199H264.68V152H218.846C214.99 152 211.295 152.468 208.301 153.989C207.197 154.55 206.272 155.365 205.48 156.301V79.4804C205.48 75.948 206.867 73.4852 209.226 71.7565C211.584 70.0279 215.007 69.1204 218.846 69.1204V69.1199Z" className="fill-white"/>
</svg>
